<svg width="27" height="26" viewBox="0 0 27 26" fill="none" xmlns="http://www.w3.org/2000/svg">
<path d="M14.8367 0.00159946C15.7853 -0.00204071 16.7339 0.00749332 17.6823 0.0301986L17.9345 0.0392982C18.2256 0.0496979 18.5129 0.0626974 18.86 0.0782969C20.2432 0.143295 21.1869 0.361687 22.015 0.682777C22.873 1.01297 23.5958 1.46015 24.3185 2.18292C24.9794 2.83239 25.4909 3.61801 25.8174 4.48515C26.1385 5.31322 26.3569 6.25829 26.4219 7.64144C26.4375 7.98723 26.4505 8.27582 26.4609 8.56701L26.4687 8.8192C26.4918 9.76712 26.5017 10.7153 26.4986 11.6635L26.4999 12.6333V14.3362C26.5031 15.2848 26.4931 16.2335 26.47 17.1818L26.4622 17.434C26.4518 17.7252 26.4388 18.0125 26.4232 18.3596C26.3582 19.7427 26.1372 20.6865 25.8174 21.5146C25.4919 22.3826 24.9803 23.1689 24.3185 23.8181C23.6685 24.4789 22.8825 24.9903 22.015 25.3169C21.1869 25.638 20.2432 25.8564 18.86 25.9214C18.5129 25.937 18.2256 25.95 17.9345 25.9604L17.6823 25.9682C16.7339 25.9913 15.7853 26.0013 14.8367 25.9981L13.8669 25.9994H12.1653C11.2166 26.0026 10.268 25.9927 9.31965 25.9695L9.06746 25.9617C8.75886 25.9505 8.45033 25.9375 8.14189 25.9227C6.75874 25.8577 5.81497 25.6367 4.9856 25.3169C4.11812 24.9911 3.33236 24.4795 2.68338 23.8181C2.02176 23.1685 1.50981 22.3824 1.18323 21.5146C0.862138 20.6865 0.643745 19.7427 0.578747 18.3596C0.56427 18.0511 0.55127 17.7426 0.539749 17.434L0.533249 17.1818C0.509283 16.2335 0.498448 15.2849 0.50075 14.3362V11.6635C0.497122 10.7153 0.506656 9.76712 0.529349 8.8192L0.538449 8.56701C0.548848 8.27582 0.561848 7.98723 0.577447 7.64144C0.642445 6.25699 0.860838 5.31452 1.18193 4.48515C1.5087 3.61758 2.02165 2.83218 2.68468 2.18423C3.33322 1.52223 4.11848 1.00981 4.9856 0.682777C5.81497 0.361687 6.75744 0.143295 8.14189 0.0782969L9.06746 0.0392982L9.31965 0.0327986C10.2676 0.00884409 11.2157 -0.00199004 12.164 0.000299598L14.8367 0.00159946ZM13.5003 6.50008C11.7765 6.50008 10.1232 7.18487 8.90427 8.40382C7.68532 9.62276 7.00053 11.276 7.00053 12.9999C7.00053 14.7237 7.68532 16.3769 8.90427 17.5959C10.1232 18.8148 11.7765 19.4996 13.5003 19.4996C15.2242 19.4996 16.8774 18.8148 18.0963 17.5959C19.3153 16.3769 20.0001 14.7237 20.0001 12.9999C20.0001 11.276 19.3153 9.62276 18.0963 8.40382C16.8774 7.18487 15.2242 6.50008 13.5003 6.50008ZM13.5003 9.09999C14.0124 9.0999 14.5196 9.20069 14.9928 9.3966C15.466 9.59251 15.8959 9.8797 16.2581 10.2418C16.6203 10.6039 16.9076 11.0337 17.1037 11.5068C17.2998 11.98 17.4007 12.4871 17.4008 12.9992C17.4009 13.5113 17.3001 14.0185 17.1042 14.4917C16.9083 14.9649 16.6211 15.3948 16.259 15.757C15.897 16.1192 15.4671 16.4065 14.994 16.6026C14.5209 16.7987 14.0137 16.8996 13.5016 16.8997C12.4673 16.8997 11.4754 16.4888 10.744 15.7575C10.0126 15.0261 9.60174 14.0342 9.60174 12.9999C9.60174 11.9655 10.0126 10.9736 10.744 10.2422C11.4754 9.51087 12.4673 9.09999 13.5016 9.09999M20.3264 4.55014C19.907 4.56693 19.5104 4.74533 19.2196 5.04799C18.9288 5.35065 18.7664 5.75408 18.7664 6.17379C18.7664 6.5935 18.9288 6.99693 19.2196 7.29959C19.5104 7.60224 19.907 7.78065 20.3264 7.79743C20.7573 7.79743 21.1706 7.62624 21.4754 7.3215C21.7801 7.01676 21.9513 6.60345 21.9513 6.17249C21.9513 5.74153 21.7801 5.32822 21.4754 5.02348C21.1706 4.71874 20.7573 4.54754 20.3264 4.54754" fill="black"/>
</svg>
